<svg width="315" height="315" viewBox="0 0 315 315" fill="none" xmlns="http://www.w3.org/2000/svg">
<g id="Frame 1" clip-path="url(#clip0_3_2)">
<g id="circle">
<circle id="Ellipse 1" cx="158.5" cy="159.5" r="152" stroke="white" stroke-width="5"/>
</g>
<g id="sigma">
<g id="&#226;&#136;&#145;">
<mask id="path-2-outside-1_3_2" maskUnits="userSpaceOnUse" x="73" y="40" width="177" height="238" fill="black">
<rect fill="white" x="73" y="40" width="177" height="238"/>
<path d="M239.5 275.25H75.375V270.625L159 158L75.375 47.125V42.5H235.125L238.5 84.625H233.5C232.167 73.125 228.917 64.9167 223.75 60C218.667 55.0833 211.542 52.625 202.375 52.625H109.875L180.125 147.25L101.5 253.125H203.75C209.583 253.125 215.958 252 222.875 249.75C227.625 248.25 231.542 245.458 234.625 241.375C237.792 237.375 240.417 231.042 242.5 222.375L247.5 223.375L239.5 275.25Z"/>
</mask>
<path d="M239.5 275.25H75.375V270.625L159 158L75.375 47.125V42.5H235.125L238.5 84.625H233.5C232.167 73.125 228.917 64.9167 223.75 60C218.667 55.0833 211.542 52.625 202.375 52.625H109.875L180.125 147.25L101.5 253.125H203.75C209.583 253.125 215.958 252 222.875 249.75C227.625 248.25 231.542 245.458 234.625 241.375C237.792 237.375 240.417 231.042 242.5 222.375L247.5 223.375L239.5 275.25Z" fill="white"/>
<path d="M239.5 275.25V277.25H241.215L241.477 275.555L239.5 275.25ZM75.375 275.25H73.375V277.25H75.375V275.25ZM75.375 270.625L73.7692 269.433L73.375 269.964V270.625H75.375ZM159 158L160.606 159.192L161.498 157.991L160.597 156.796L159 158ZM75.375 47.125H73.375V47.7947L73.7782 48.3293L75.375 47.125ZM75.375 42.5V40.5H73.375V42.5H75.375ZM235.125 42.5L237.119 42.3403L236.971 40.5H235.125V42.5ZM238.5 84.625V86.625H240.667L240.494 84.4653L238.5 84.625ZM233.5 84.625L231.513 84.8553L231.718 86.625H233.5V84.625ZM223.75 60L222.36 61.4376L222.365 61.4432L222.371 61.4488L223.75 60ZM109.875 52.625V50.625H105.899L108.269 53.8172L109.875 52.625ZM180.125 147.25L181.731 148.442L182.616 147.25L181.731 146.058L180.125 147.25ZM101.5 253.125L99.8943 251.933L97.5236 255.125H101.5V253.125ZM222.875 249.75L222.273 247.843L222.265 247.845L222.256 247.848L222.875 249.75ZM234.625 241.375L233.057 240.134L233.043 240.152L233.029 240.17L234.625 241.375ZM242.5 222.375L242.892 220.414L241.005 220.036L240.555 221.908L242.5 222.375ZM247.5 223.375L249.477 223.68L249.768 221.789L247.892 221.414L247.5 223.375ZM239.5 273.25H75.375V277.25H239.5V273.25ZM77.375 275.25V270.625H73.375V275.25H77.375ZM76.9808 271.817L160.606 159.192L157.394 156.808L73.7692 269.433L76.9808 271.817ZM160.597 156.796L76.9718 45.9207L73.7782 48.3293L157.403 159.204L160.597 156.796ZM77.375 47.125V42.5H73.375V47.125H77.375ZM75.375 44.5H235.125V40.5H75.375V44.5ZM233.131 42.6597L236.506 84.7847L240.494 84.4653L237.119 42.3403L233.131 42.6597ZM238.5 82.625H233.5V86.625H238.5V82.625ZM235.487 84.3947C234.131 72.6999 230.79 63.9381 225.129 58.5512L222.371 61.4488C227.044 65.8953 230.203 73.5501 231.513 84.8553L235.487 84.3947ZM225.14 58.5624C219.583 53.1875 211.901 50.625 202.375 50.625V54.625C211.182 54.625 217.75 56.9791 222.36 61.4376L225.14 58.5624ZM202.375 50.625H109.875V54.625H202.375V50.625ZM108.269 53.8172L178.519 148.442L181.731 146.058L111.481 51.4328L108.269 53.8172ZM178.519 146.058L99.8943 251.933L103.106 254.317L181.731 148.442L178.519 146.058ZM101.5 255.125H203.75V251.125H101.5V255.125ZM203.75 255.125C209.838 255.125 216.424 253.952 223.494 251.652L222.256 247.848C215.492 250.048 209.329 251.125 203.75 251.125V255.125ZM223.477 251.657C228.635 250.028 232.895 246.985 236.221 242.58L233.029 240.17C230.189 243.931 226.615 246.472 222.273 247.843L223.477 251.657ZM236.193 242.616C239.628 238.278 242.337 231.611 244.445 222.842L240.555 221.908C238.497 230.472 235.956 236.472 233.057 240.134L236.193 242.616ZM242.108 224.336L247.108 225.336L247.892 221.414L242.892 220.414L242.108 224.336ZM245.523 223.07L237.523 274.945L241.477 275.555L249.477 223.68L245.523 223.07Z" fill="white" mask="url(#path-2-outside-1_3_2)"/>
</g>
</g>
</g>
<defs>
<clipPath id="clip0_3_2">
<rect width="315" height="315" fill="white"/>
</clipPath>
</defs>
</svg>
