<svg width="512" height="512" viewBox="0 0 512 512" fill="none" xmlns="http://www.w3.org/2000/svg">
<g clip-path="url(#clip0_1_2)">
<path d="M257.625 506.311C394.073 506.311 504.686 395.698 504.686 259.251C504.686 122.803 394.073 12.1905 257.625 12.1905C121.178 12.1905 10.5651 122.803 10.5651 259.251C10.5651 395.698 121.178 506.311 257.625 506.311Z" stroke="#0D47A1" stroke-width="16.254"/>
<path d="M389.283 447.39H122.514V439.873L258.438 256.813L122.514 76.5968V69.0793H382.171L387.657 137.549H379.53C377.364 118.857 372.081 105.515 363.683 97.5238C355.421 89.5322 343.84 85.5365 328.94 85.5365H178.59L292.775 239.34L164.978 411.429H331.175C340.656 411.429 351.017 409.6 362.26 405.943C369.981 403.505 376.348 398.967 381.359 392.33C386.506 385.829 390.773 375.535 394.159 361.448L402.286 363.073L389.283 447.39Z" fill="#0D47A1"/>
</g>
<defs>
<clipPath id="clip0_1_2">
<rect width="512" height="512" fill="white"/>
</clipPath>
</defs>
</svg>
